<?xml version="1.0" standalone="no"?><!DOCTYPE svg PUBLIC "-//W3C//DTD SVG 1.1//EN" "http://www.w3.org/Graphics/SVG/1.1/DTD/svg11.dtd"><svg t="1725617072575" class="icon" viewBox="0 0 1024 1024" version="1.1" xmlns="http://www.w3.org/2000/svg" p-id="6452" xmlns:xlink="http://www.w3.org/1999/xlink" width="64" height="64"><path d="M1022.4 713.6V289.6L801.6 510.4l220.8 203.2m-372.8-51.2c-36.8 36.8-84.8 56-136 56s-99.2-20.8-136-56L257.6 544 3.2 777.6V816c0 51.2 41.6 92.8 92.8 92.8h833.6c51.2 0 92.8-41.6 92.8-92.8v-40L768 544l-118.4 118.4" fill="#515151" p-id="6453"></path><path d="M931.2 115.2H97.6C48 115.2 6.4 156.8 6.4 208v19.2l404.8 406.4c27.2 27.2 64 43.2 104 43.2 38.4 0 75.2-16 104-43.2L1024 227.2V208c0-51.2-41.6-92.8-92.8-92.8M3.2 289.6v424L225.6 512 3.2 289.6" fill="#515151" p-id="6454"></path></svg>