<?xml version="1.0" standalone="no"?><!DOCTYPE svg PUBLIC "-//W3C//DTD SVG 1.1//EN" "http://www.w3.org/Graphics/SVG/1.1/DTD/svg11.dtd"><svg t="1725616595068" class="icon" viewBox="0 0 1024 1024" version="1.1" xmlns="http://www.w3.org/2000/svg" p-id="4423" id="mx_n_1725616595070" width="64" height="64" xmlns:xlink="http://www.w3.org/1999/xlink"><path d="M229.485625 430.549943 228.012064 426.00851 226.831168 420.051845 226.006384 416.790568 226.006384 412.707576 226.006384 407.812079 226.006384 403.387303 227.422639 398.137743 228.8962 392.533095 230.7842 386.707412 233.351676 380.189975 236.742912 373.421828 241.520729 366.638331 241.520729 361.874841 241.99145 357.435739 242.698554 351.374696 244.76461 344.620875 246.651586 337.276606 248.155846 333.884346 249.895467 330.74382 252.136507 327.249229 254.555603 324.667427 254.555603 319.903937 254.555603 314.52237 254.555603 307.887252 255.971859 299.246455 257.388115 289.217031 259.922844 277.214672 263.404132 264.738523 265.999237 257.849626 268.565688 250.389724 271.365454 243.398496 274.730085 235.938594 278.152021 227.768517 282.101983 220.085534 286.526759 211.916481 292.12936 203.743334 294.695812 199.083198 297.468972 195.235566 303.45429 186.610118 309.592081 177.9816 316.610938 169.120792 324.100516 160.476925 332.242963 151.984507 340.735381 143.222959 351.001189 133.785006 357.548302 128.064724 365.481995 121.886001 373.534392 116.41336 382.26217 111.164822 390.639978 106.504686 400.077931 102.656031 410.105309 97.862865 420.074358 94.603635 430.04443 91.226724 440.777889 87.849814 451.514417 85.284385 462.84037 83.175351 474.28298 81.317027 485.548558 79.798441 496.873488 78.264505 508.908592 77.586053 520.352225 77.586053 532.209274 77.586053 544.476669 77.586053 556.334741 79.090313 568.249095 80.506569 580.40188 81.788771 591.666434 84.472903 603.581812 87.024006 614.761432 89.929172 626.999151 93.202729 638.207423 97.170087 648.943952 101.712543 660.387585 106.504686 670.858054 111.754247 681.003112 117.563556 690.942485 123.994012 699.555653 129.937374 703.505615 133.314285 707.695031 135.763057 715.6584 142.531204 722.381521 149.063991 729.047338 155.832138 735.594451 163.29511 740.964762 170.519652 747.33382 177.9816 751.818971 186.018647 756.330728 193.142905 761.136174 201.430662 765.089206 208.65418 771.815397 223.933165 775.116583 231.852532 777.683035 239.196801 780.25051 247.131517 782.548856 254.590396 784.200472 261.005502 786.266527 268.586155 789.923824 282.110169 792.252869 293.891494 793.757129 305.319777 795.055704 314.52237 797.120736 328.518129 797.59248 330.74382 799.244097 333.311295 803.665803 340.534813 806.498314 345.419054 809.03509 350.565261 812.278971 356.034832 815.112506 362.581945 816.939107 369.337813 818.944787 376.680035 820.478723 384.245338 821.185828 387.975289 821.777299 392.533095 821.777299 396.501476 821.185828 400.466788 821.185828 405.377634 820.008003 410.140101 817.884642 419.358043 815.465546 424.01818 813.695227 429.266717 813.695227 430.549943 814.520011 432.187233 816.939107 436.034864 827.440275 451.54921 835.754638 463.201597 839.70767 471.01761 845.074911 479.525378 849.735048 488.859977 855.104335 498.872005 860.471576 510.079254 866.518293 522.791787 869.909529 530.59245 873.03573 538.173103 875.750561 546.224476 878.405017 553.449018 880.410698 561.02967 882.473683 568.153928 885.070834 582.028936 887.133819 596.244706 888.550075 608.838535 888.550075 615.712083 888.550075 621.314685 888.550075 626.563222 887.60454 632.875998 886.248659 643.714857 884.361683 653.505851 881.470843 662.355403 880.410698 665.967674 878.405017 670.289096 876.693026 673.327292 874.451986 677.057243 872.446305 679.403684 869.909529 682.427554 867.668489 684.873256 865.249393 686.965917 862.359576 688.250166 859.764472 689.533392 857.642135 690.228217 855.781764 690.228217 854.395184 690.228217 852.302523 689.533392 848.321862 687.558411 846.491167 686.275185 844.60419 684.873256 842.510506 683.000606 840.414775 680.907944 836.935534 677.057243 832.807517 671.587672 829.563636 665.967674 826.316685 661.440567 823.163879 656.191006 818.709427 646.856407 813.695227 637.167744 813.103756 636.82903 812.278971 636.82903 810.212916 638.34864 809.03509 640.899742 807.087739 644.053572 803.665803 653.505851 798.534945 666.913209 791.929504 683.000606 786.973632 691.053002 781.75477 699.44309 775.590374 708.881043 769.043261 718.113311 765.67863 722.301703 761.609964 726.84416 752.260016 736.059032 753.084801 736.871537 754.352677 738.170113 759.012813 740.954529 778.481214 750.290151 786.973632 755.067968 795.055704 759.728104 803.076378 765.568113 810.212916 771.630179 813.695227 774.312264 816.290331 777.452791 818.944787 781.083481 821.185828 785.048793 822.366723 788.307 823.840284 792.275381 824.429709 795.652292 825.13886 799.617603 824.429709 802.287409 824.429709 804.972565 823.840284 807.77233 822.366723 810.338782 821.777299 812.329113 820.478723 814.763558 816.939107 819.556725 813.695227 823.404356 811.158451 826.309522 809.03509 828.417533 803.665803 832.371588 797.59248 835.778174 791.101649 839.036381 784.200472 842.177931 776.415159 845.200778 772.286118 846.499353 768.56947 847.528799 759.605308 849.63988 750.285035 851.615884 740.964762 853.606215 730.817658 855.242482 720.318536 855.701946 709.582007 856.982102 698.966229 856.982102 687.758979 856.982102 676.254971 856.982102 664.222937 856.290347 653.014664 855.242482 640.97956 853.606215 629.004831 852.321966 616.384395 850.566996 604.173283 847.528799 592.255859 845.200778 580.40188 841.823867 568.249095 837.502445 556.334741 833.890174 550.08234 831.809793 544.476669 829.804113 540.937053 828.417533 537.458835 827.725778 532.916379 827.725778 527.549138 827.725778 516.105504 826.898947 510.295172 826.309522 502.8322 825.485761 498.054383 829.804113 491.50727 833.890174 482.657718 838.21262 472.866724 843.578838 466.911082 846.499353 460.71701 848.813049 446.971961 854.417697 439.508989 856.290347 431.692976 858.384032 420.841837 860.479763 414.05834 861.053837 406.861428 861.642239 399.36878 862.470093 390.639978 862.823134 382.26217 862.823134 373.534392 862.823134 354.98185 862.823134 334.837044 862.470093 315.311339 860.479763 305.402665 859.093183 295.847032 857.676927 286.526759 856.290347 277.206486 854.417697 268.565688 851.615884 259.922844 849.63988 252.136507 846.499353 244.76461 843.578838 237.920738 840.305281 231.965096 836.69301 226.006384 832.371588 224.000704 830.277904 221.346247 827.725778 219.340567 825.485761 217.510896 822.933635 215.861326 820.36616 214.56275 817.801754 212.70545 812.329113 212.025974 809.5273 211.202213 806.373471 211.202213 803.468304 212.025974 800.210098 212.025974 796.921191 212.70545 793.661961 212.70545 791.68391 212.70545 787.126105 213.028814 783.632537 214.56275 779.666202 215.861326 775.697821 218.220047 770.920004 219.929991 769.062703 221.346247 766.954693 225.060849 762.412237 228.012064 760.081145 230.7842 758.443855 233.351676 756.351194 237.450017 755.067968 240.692874 753.091964 244.76461 750.983953 249.424746 749.598396 254.084882 748.182141 259.4511 747.015571 264.582981 746.323816 270.659373 745.512335 277.206486 745.04059 278.946107 744.452189 279.299147 744.452189 280.127002 743.742015 280.127002 742.947929 278.946107 741.310639 275.43719 739.674373 266.708388 732.09372 260.867356 727.433584 254.084882 721.489198 247.241011 714.854081 240.104473 706.331987 231.965096 696.77533 228.8962 691.626054 224.825488 686.275185 221.346247 680.08009 218.220047 673.327292 213.974349 666.913209 211.202213 659.567917 207.927633 652.225695 204.654077 644.053572 202.234981 636.251885 199.99394 626.563222 199.283766 626.210181 198.60736 626.210181 198.25432 625.518427 197.426465 625.518427 196.040908 626.210181 195.333804 626.563222 194.388269 628.200512 194.035228 630.178563 193.328124 631.933533 192.086853 634.838699 188.076516 641.959887 186.013531 646.282333 182.739974 650.012284 179.230034 654.53939 175.394682 659.567917 171.32397 664.007019 166.546154 668.314115 162.094772 672.381757 157.228951 675.552983 151.85864 678.929894 146.727783 680.907944 140.65139 682.427554 134.695748 683.000606 134.103254 683.000606 133.278469 683.000606 131.922588 682.427554 130.859373 680.08009 129.090077 678.929894 126.788661 673.327292 125.375475 670.289096 123.840516 665.967674 122.57264 661.440567 121.893164 657.003512 120.005164 646.856407 119.299083 640.899742 119.299083 634.838699 119.299083 621.314685 120.005164 606.745874 121.18606 599.282902 122.57264 591.58457 123.840516 583.312162 126.081557 575.61383 128.618333 566.737672 131.213437 558.124504 134.695748 549.248346 137.969305 540.737508 142.481062 532.11206 146.727783 522.791787 151.85864 514.048659 157.905356 504.595356 164.068729 496.084519 170.499186 486.646566 175.866427 480.113779 182.739974 472.533127 189.963493 464.955544 193.328124 461.340203 197.426465 457.257212 203.355501 452.111005 209.431893 446.873724 219.340567 438.012915 226.831168 432.540274Z" fill="#515151" p-id="4424"></path></svg>